#!OML:ASF I:\Actors\actors\Patient Classification 2\Patient 1\Session 1\actor1.ASF
:FULLY-SPECIFIED
:DEGREES
415
root -0.924012 18.4622 5.3592 10.8262 -4.38213 -4.7638
lowerback 17.6283 1.09396 2.98719
upperback 0.671468 2.12462 0.909096
thorax -9.10442 0.905655 -1.24396
lowerneck -4.96385 0.346939 3.25988
upperneck -19.3953 0.586555 0.751449
head -5.02867 0.0176205 -0.327894
rclavicle -1.01629e-014 6.31141e-015
rhumerus -0.825449 25.2336 -71.6308
rradius 134.41
rwrist -22.9687
rhand -22.6501 -55.4718
rfingers 7.12502
rthumb 3.78096 634.582
lclavicle -1.01629e-014 6.31141e-015
lhumerus 0.13116 -34.0329 83.2582
lradius 128.122
lwrist 24.2145
lhand -23.6526 -19.4732
lfingers 7.12502
lthumb 2.8129 10.488
rfemur -4.46886 -0.361237 20.6735
rtibia 3.18055e-015
rfoot -14.0106 -10.1302
rtoes 10.0846
lfemur 3.41425 -6.80065 -11.2635
ltibia -15.7965
lfoot -3.5273 21.8152
ltoes -4.5857
416
root -0.926434 18.4621 5.35748 10.8567 -4.40117 -4.76072
lowerback 17.3589 1.11007 2.95669
upperback 0.659394 2.13065 0.916049
thorax -8.9681 0.912968 -1.21349
lowerneck -4.89882 0.299136 3.21254
upperneck -19.0083 0.530073 0.838476
head -4.91953 -0.00601222 -0.290732
rclavicle 2.53699e-014 1.28713e-014
rhumerus -0.650803 25.0171 -71.6185
rradius 133.889
rwrist -23.3702
rhand -22.5515 -55.1768
rfingers 7.12502
rthumb 3.87621 634.879
lclavicle 2.53699e-014 1.28713e-014
lhumerus 0.428454 -33.7052 83.1504
lradius 127.729
lwrist 24.975
lhand -23.5257 -19.3103
lfingers 7.12502
lthumb 2.93541 10.6492
rfemur -4.51144 -0.374621 20.6774
rtibia 2.06736e-014
rfoot -13.9775 -10.113
rtoes 9.97132
lfemur 3.39069 -6.91049 -11.2454
ltibia -15.8082
lfoot -3.63082 21.96
ltoes -4.87429
417
root -0.929005 18.4616 5.35687 10.8285 -4.39035 -4.74138
lowerback 17.0811 1.11313 2.92173
upperback 0.650456 2.11899 0.929322
thorax -8.82461 0.912272 -1.16913
lowerneck -5.11191 0.214962 3.15812
upperneck -17.8264 0.401506 0.934561
head -5.068 -0.0540308 -0.24314
rclavicle -1.89342e-014 -1.31198e-014
rhumerus -0.440145 24.7799 -71.5865
rradius 133.15
rwrist -23.655
rhand -22.2706 -54.8521
rfingers 7.12502
rthumb 4.14747 635.208
lclavicle -1.89342e-014 -1.31198e-014
lhumerus 0.799513 -33.2468 83.0448
lradius 127.068
lwrist 25.8048
lhand -23.5575 -18.8995
lfingers 7.12502
lthumb 2.90468 11.0605
rfemur -4.48021 -0.421153 20.6694
rtibia -1.82882e-014
rfoot -13.8917 -10.1067
rtoes 9.71379
lfemur 3.41522 -6.96586 -11.2586
ltibia -15.8042
lfoot -3.67721 22.0209
ltoes -4.98098
418
root -0.930219 18.4609 5.35569 10.7448 -4.33991 -4.74149
lowerback 16.8547 1.08586 2.92454
upperback 0.605188 2.07844 0.949013
thorax -8.74958 0.894672 -1.1344
lowerneck -5.20515 0.129266 3.06791
upperneck -16.9396 0.288693 1.1156
head -4.71222 -0.0982519 -0.163084
rclavicle -3.13086e-015 8.39865e-015
rhumerus -0.221938 24.5265 -71.5474
rradius 132.195
rwrist -23.9607
rhand -21.5559 -54.4725
rfingers 7.12502
rthumb 4.83757 635.603
lclavicle -3.13086e-015 8.39865e-015
lhumerus 1.18034 -32.7238 82.9252
lradius 126.092
lwrist 26.5077
lhand -23.6349 -18.6034
lfingers 7.12502
lthumb 2.82995 11.3576
rfemur -4.37806 -0.50379 20.685
rtibia 1.19271e-014
rfoot -13.8748 -10.1023
rtoes 9.34108
lfemur 3.48037 -6.97698 -11.2611
ltibia -15.7816
lfoot -3.67101 21.9678
ltoes -4.86442
419
root -0.930522 18.4597 5.35452 10.6031 -4.29637 -4.72978
lowerback 16.6971 1.04858 2.93073
upperback 0.525925 2.02832 0.961415
thorax -8.7501 0.87043 -1.10965
lowerneck -5.63472 0.0674771 2.9796
upperneck -15.5369 0.183255 1.29986
head -4.10955 -0.129174 -0.0852123
rclavicle -1.73191e-014 -2.43014e-014
rhumerus 0.0627185 24.2611 -71.4761
rradius 131.006
rwrist -24.4451
rhand -20.759 -53.7974
rfingers 7.12502
rthumb 5.60708 636.297
lclavicle -1.73191e-014 -2.43014e-014
lhumerus 1.60868 -32.1663 82.7854
lradius 124.857
lwrist 27.0446
lhand -23.6921 -18.5004
lfingers 7.12502
lthumb 2.77473 11.4613
rfemur -4.22177 -0.582741 20.6803
rtibia -3.97569e-015
rfoot -13.8759 -10.0877
rtoes 9.01147
lfemur 3.60837 -6.96097 -11.2893
ltibia -15.7569
lfoot -3.68799 21.8701
ltoes -4.76386
420
root -0.931223 18.4567 5.35545 10.3675 -4.28394 -4.68818
lowerback 16.5649 1.02226 2.9017
upperback 0.455501 1.98629 0.970253
thorax -8.75576 0.851379 -1.07138
lowerneck -6.41667 0.0102959 2.94971
upperneck -13.5997 0.0428678 1.36653
head -3.27345 -0.165771 -0.0592848
rclavicle 5.26779e-015 -1.50082e-014
rhumerus 0.448091 23.9852 -71.3486
rradius 129.663
rwrist -25.1387
rhand -20.1704 -53.0545
rfingers 7.12502
rthumb 6.17533 637.056
lclavicle 5.26779e-015 -1.50082e-014
lhumerus 2.07361 -31.5538 82.6139
lradius 123.44
lwrist 27.5672
lhand -23.456 -18.6403
lfingers 7.12502
lthumb 3.00269 11.3183
rfemur -3.96367 -0.637695 20.6337
rtibia 2.06736e-014
rfoot -13.82 -10.0449
rtoes 8.89334
lfemur 3.85177 -6.9015 -11.3753
ltibia -15.7316
lfoot -3.6672 21.751
ltoes -4.79916
421
root -0.932541 18.4529 5.35866 10.07 -4.27608 -4.67487
lowerback 16.4254 1.01178 2.90949
upperback 0.391407 1.97244 0.987448
thorax -8.74838 0.844765 -1.05138
lowerneck -7.45498 -0.0928657 2.90699
upperneck -11.2364 -0.179082 1.41406
head -2.28642 -0.234009 -0.0399068
rclavicle 8.27441e-015 -7.45443e-015
rhumerus 0.844066 23.7173 -71.2018
rradius 128.242
rwrist -25.7303
rhand -19.6779 -52.5349
rfingers 7.12502
rthumb 6.65074 637.59
lclavicle 8.27441e-015 -7.45443e-015
lhumerus 2.60534 -30.9724 82.3709
lradius 121.89
lwrist 28.1606
lhand -23.0462 -19.0691
lfingers 7.12502
lthumb 3.39849 10.8836
rfemur -3.62109 -0.683467 20.6185
rtibia 2.22639e-014
rfoot -13.7622 -10.0094
rtoes 8.77515
lfemur 4.18987 -6.83608 -11.4448
ltibia -15.7246
lfoot -3.60533 21.632
ltoes -4.92636
